<?xml version="1.0" standalone="no"?>
<!DOCTYPE svg PUBLIC "-//W3C//DTD SVG 20010904//EN"
 "http://www.w3.org/TR/2001/REC-SVG-20010904/DTD/svg10.dtd">
<svg version="1.0" xmlns="http://www.w3.org/2000/svg"
 width="500.000000pt" height="500.000000pt" viewBox="0 0 500.000000 500.000000"
 preserveAspectRatio="xMidYMid meet">

<g transform="translate(0.000000,500.000000) scale(0.100000,-0.100000)"
fill="#000000" stroke="none">
<path d="M2427 3889 c-323 -37 -607 -166 -828 -377 -108 -102 -200 -222 -261
-340 -55 -105 -65 -132 -46 -132 8 0 30 33 50 74 100 202 255 382 436 505 138
93 340 177 522 217 116 26 452 26 550 1 54 -14 57 -16 20 -11 -310 35 -564 -3
-807 -121 -157 -76 -269 -152 -384 -262 -96 -93 -254 -285 -298 -363 l-22 -40
28 0 c24 1 36 13 83 88 98 155 290 336 470 443 39 23 70 47 70 54 0 28 226
118 382 151 119 26 410 26 528 0 115 -25 269 -79 365 -129 93 -49 237 -183
328 -308 61 -83 155 -242 163 -276 4 -14 14 -23 25 -23 10 0 19 2 19 5 0 3
-19 42 -41 87 -49 97 -108 189 -179 277 l-52 63 41 -33 c73 -58 209 -235 272
-353 18 -34 30 -46 47 -46 l23 0 -32 58 c-94 165 -209 307 -335 411 -109 91
-376 253 -492 299 -195 77 -428 107 -645 81z"/>
<path d="M2623 3613 c-53 -10 -17 -23 65 -23 161 0 359 -69 500 -173 34 -26
62 -45 62 -42 0 6 -130 107 -165 128 -145 85 -344 133 -462 110z"/>
<path d="M1814 2914 c18 -167 18 -344 1 -466 -29 -206 -101 -466 -144 -519
l-18 -23 -16 25 c-32 50 -55 214 -82 584 -17 238 -29 298 -63 303 -29 4 -42
-26 -77 -182 -41 -184 -62 -310 -75 -446 -14 -155 -10 -342 8 -348 9 -3 12 22
12 105 0 197 28 417 86 673 15 63 30 121 34 129 10 19 18 -33 25 -174 20 -363
69 -642 120 -685 51 -42 105 47 160 260 54 211 76 356 75 505 0 155 -19 306
-39 313 -11 4 -12 -7 -7 -54z"/>
<path d="M3214 2914 c18 -167 18 -344 1 -466 -29 -206 -101 -466 -144 -519
l-18 -23 -16 25 c-32 50 -55 214 -82 584 -17 238 -29 298 -63 303 -29 4 -42
-26 -77 -182 -41 -184 -62 -310 -75 -446 -14 -155 -10 -342 8 -348 9 -3 12 22
12 105 0 197 28 417 86 673 43 190 46 185 64 -120 19 -304 62 -543 108 -601
51 -62 109 25 167 251 54 211 76 356 75 505 0 155 -19 306 -39 313 -11 4 -12
-7 -7 -54z"/>
<path d="M2444 2915 c-7 -19 -14 -39 -14 -44 0 -6 -19 -15 -42 -21 -176 -46
-268 -85 -268 -115 0 -19 24 -19 40 0 14 17 92 47 192 75 l71 19 -6 -52 c-4
-28 -9 -106 -13 -172 l-7 -120 -41 -26 c-22 -15 -57 -39 -77 -53 l-36 -27 -48
44 c-42 39 -46 46 -36 65 6 12 21 26 32 32 16 9 18 14 9 25 -19 23 -64 -6 -83
-54 -36 -88 -177 -134 -177 -58 0 17 10 28 35 40 42 20 72 71 54 93 -19 23
-49 16 -84 -19 -59 -59 -56 -152 6 -177 34 -15 75 -3 125 35 18 14 36 25 41
25 4 0 27 -18 51 -41 l42 -41 -44 -49 c-89 -99 -104 -199 -30 -199 61 0 124
100 124 197 l0 60 60 44 c33 24 65 46 70 47 6 2 10 -49 10 -133 0 -129 8 -175
30 -175 6 0 10 86 10 223 0 122 5 279 11 349 l12 127 71 12 c39 7 99 13 133
13 43 1 63 5 63 13 0 21 -47 26 -133 13 -45 -6 -93 -14 -107 -17 -21 -5 -23
-3 -12 8 6 7 12 26 12 41 0 40 -28 36 -46 -7z m-444 -385 c-12 -22 -50 -46
-50 -31 0 9 47 51 57 51 2 0 -1 -9 -7 -20z m197 -324 c-24 -51 -56 -83 -71
-69 -20 20 9 89 63 146 l26 29 3 -26 c2 -15 -8 -51 -21 -80z"/>
<path d="M3690 2869 c-22 -41 -41 -180 -49 -364 -9 -196 -4 -286 15 -292 7 -2
21 25 33 64 12 37 27 79 35 93 l14 24 10 -39 c6 -22 16 -59 21 -82 13 -48 43
-89 59 -79 7 4 5 20 -8 49 -26 58 -51 204 -40 231 5 12 23 41 39 66 26 38 28
46 14 49 -21 4 -41 -23 -104 -142 -28 -54 -53 -96 -56 -93 -12 12 31 427 53
502 8 29 -22 40 -36 13z"/>
<path d="M3367 2552 c-28 -31 -59 -113 -64 -171 -5 -48 -2 -59 16 -75 63 -57
139 96 93 186 -13 24 -16 40 -9 47 10 10 2 31 -12 31 -4 0 -15 -8 -24 -18z
m23 -108 c0 -40 -24 -104 -39 -104 -16 0 -13 36 6 96 18 58 33 62 33 8z"/>
<path d="M3537 2552 c-28 -31 -59 -113 -64 -171 -5 -48 -2 -59 16 -75 63 -57
139 96 93 186 -13 24 -16 40 -9 47 10 10 2 31 -12 31 -4 0 -15 -8 -24 -18z
m23 -108 c0 -40 -24 -104 -39 -104 -16 0 -13 36 6 96 18 58 33 62 33 8z"/>
<path d="M1226 1933 c4 -16 20 -66 37 -113 95 -273 284 -502 541 -655 352
-210 809 -250 1257 -109 397 125 725 421 890 804 21 50 39 92 39 95 0 3 -8 5
-19 5 -13 0 -23 -14 -36 -47 -26 -72 -111 -230 -163 -303 -128 -180 -346 -358
-547 -448 -36 -16 -32 -13 67 62 188 141 422 425 533 647 41 81 43 89 25 89
-15 0 -30 -21 -61 -82 -76 -152 -198 -316 -346 -469 -164 -168 -316 -267 -508
-328 -162 -52 -250 -64 -435 -58 -255 9 -456 61 -632 163 -104 61 -275 228
-371 364 -61 88 -177 300 -204 378 -9 27 -16 32 -42 32 -29 0 -31 -2 -25 -27z"/>
<path d="M2095 1366 c36 -30 190 -108 260 -131 75 -25 220 -40 289 -29 95 14
78 29 -29 26 -160 -6 -312 33 -475 119 -57 31 -68 34 -45 15z"/>
</g>
</svg>
